{"title":"The Man with the Iron Fists 2 - L Uomo Con I Pugni Di Ferro 2 (2","uid":12140222,"size":1639925421,"categoryP":"video","categoryS":"movies","magnet":"?xt=urn:btih:0e8fad2a861e56aa153800ed5cb34d0b7089a8f6&amp;dn=The+Man+with+the+Iron+Fists+2+-+L+Uomo+Con+I+Pugni+Di+Ferro+2+%282&amp;tr=udp%3A%2F%2Ftracker.openbittorrent.com%3A80&amp;tr=udp%3A%2F%2Fopen.demonii.com%3A1337&amp;tr=udp%3A%2F%2Ftracker.coppersurfer.tk%3A6969&amp;tr=udp%3A%2F%2Fexodus.desync.com%3A6969","seeders":20,"leechers":3,"uploader":"robbyrs4","files":5,"time":1437332784,"description":"The Man with the Iron Fists 2 - L Uomo Con I Pugni Di Ferro 2 (2015).BRrip.XviD - Italian English.Ac3.Sub.ita.MIRCrew\n\n[center]\n\n[color=orange][b][img]http://s19.postimg.org/w9ws99nmb/banner_mircrew_original_2.png[/img]\n\n[u]NO FOUND ONLY ORIGINAL RELEASE[/u]\n\nL Uomo Con I Pugni Di Ferro 2 - The Man with the Iron Fists 2 (2015)\n\n[img]http://i.imgur.com/WgIuhwN.png[/img]\n\n\n[URL=http://www.imdb.com/title/tt3625152/][IMG]http://www.userlogos.org/files/logos/Sucka/imdb_new.png[/IMG][/URL]  \n\n[img]http://s19.postimg.org/vz5tzn42b/1_scheda.png[/img]\n\nGenere: Azione\nRegia: RZA\nSceneggiatura: RZA\nNazione: USA\nProduttore: Eli Roth\nAnno:2015\nDistributore: Universal Pictures\n\n[img]http://s19.postimg.org/q8fnlww2b/1_cast.png[/img]\n\nRZA, Rick Yune, Dustin Nguyen, Cary Tagawa, Carl Ng, Ocean Hou, Simon Yin\n   \n[img]http://s19.postimg.org/okgi79i6r/1_trama.png[/img]\n\nQuando Thaddeus viene trovato gravemente ferito nei pressi di una cittadina cinese del 19esimo secolo, il minatore Li Kung (Nguyen) e sua moglie Ah Ni (Yuan) gli offrono un riparo. Mentre l'uomo si riprende, si ritrova coinvolto in un conflitto che vede i cittadini contro il perfido Master Ho (Ng), il suo efferato Beetle Clan e il terribile Lord Pi (Tagawa). Con Thaddeus al proprio fianco, il mite Kung si trasforma in un guerriero letale, in questa epopea di arti marziali................\n\n[img]http://s19.postimg.org/fzn6g380j/1_story.png[/img]\n\nWhen a stranger, Thaddeus, is found badly wounded near the village, miner Li Kung and his wife Ah Ni offer him refuge. As he heals, he becomes entrenched in a conflict that pits the .............\n &lt;a href=&quot;\nhttp://extraimago.com/images/2015/07/19/vlcsnap-2015-07-19-18h50m00s69.png[/img]&quot; rel=&quot;nofollow&quot; target=&quot;_NEW&quot;&gt;\nhttp://extraimago.com/images/2015/07/19/vlcsnap-2015-07-19-18h50m00s69.png[/img]&lt;/a&gt; &lt;a href=&quot;\nhttp://extraimago.com/images/2015/07/19/vlcsnap-2015-07-19-18h50m11s173.png[/img]&quot; rel=&quot;nofollow&quot; target=&quot;_NEW&quot;&gt;\nhttp://extraimago.com/images/2015/07/19/vlcsnap-2015-07-19-18h50m11s173.png[/img]&lt;/a&gt; &lt;a href=&quot;\nhttp://extraimago.com/images/2015/07/19/vlcsnap-2015-07-19-18h50m22s41.png[/img]&quot; rel=&quot;nofollow&quot; target=&quot;_NEW&quot;&gt;\nhttp://extraimago.com/images/2015/07/19/vlcsnap-2015-07-19-18h50m22s41.png[/img]&lt;/a&gt;\n\n\n[img]http://imgur.com/lvhU6.gif[/img]\n\n\n[img]http://s19.postimg.org/a2jaz9qvn/1_dati.png[/img]\n\n\n[spoiler]\nGeneral\nComplete name                            : L Uomo Con I Pugni Di Ferro 2 - The Man with the Iron Fists 2 (2015).ita.eng.sub.ita.eng.MIRCrewL Uomo Con I Pugni Di Ferro 2 (2015).ita.eng.sub.ita.eng.MIRCrew.avi\nFormat                                   : AVI\nFormat/Info                              : Audio Video Interleave\nFile size                                : 1.53 GiB\nDuration                                 : 1h 30mn\nOverall bit rate                         : 2 418 Kbps\nMovie name                               : MIRCrew by robbyrs\nWriting application                      : VirtualDubMod 1.5.10.2 (build 2540/release)\nWriting library                          : VirtualDubMod build 2540/release\n\nVideo\nID                                       : 0\nFormat                                   : MPEG-4 Visual\nFormat profile                           : Simple@L3\nFormat settings, BVOP                    : No\nFormat settings, QPel                    : No\nFormat settings, GMC                     : No warppoints\nFormat settings, Matrix                  : Default (H.263)\nCodec ID                                 : XVID\nCodec ID/Hint                            : XviD\nDuration                                 : 1h 30mn\nBit rate                                 : 1 508 Kbps\nWidth                                    : 720 pixels\nHeight                                   : 404 pixels\nDisplay aspect ratio                     : 16:9\nFrame rate                               : 23.976 fps\nColor space                              : YUV\nChroma subsampling                       : 4:2:0\nBit depth                                : 8 bits\nScan type                                : Progressive\nCompression mode                         : Lossy\nBits/(Pixel*Frame)                       : 0.216\nStream size                              : 975 MiB (62%)\nWriting library                          : XviD 64\n\nAudio #1\nID                                       : 1\nFormat                                   : AC-3\nFormat/Info                              : Audio Coding 3\nMode extension                           : CM (complete main)\nCodec ID                                 : 2000\nDuration                                 : 1h 30mn\nBit rate mode                            : Constant\nBit rate                                 : 448 Kbps\nChannel(s)                               : 6 channels\nChannel positions                        : Front: L C R, Side: L R, LFE\nSampling rate                            : 48.0 KHz\nBit depth                                : 16 bits\nCompression mode                         : Lossy\nStream size                              : 290 MiB (19%)\nAlignment                                : Split accross interleaves\nInterleave, duration                     : 42 ms (1.00 video frame)\nInterleave, preload duration             : 500 ms\n\nAudio #2\nID                                       : 2\nFormat                                   : AC-3\nFormat/Info                              : Audio Coding 3\nMode extension                           : CM (complete main)\nCodec ID                                 : 2000\nDuration                                 : 1h 30mn\nBit rate mode                            : Constant\nBit rate                                 : 448 Kbps\nChannel(s)                               : 6 channels\nChannel positions                        : Front: L C R, Side: L R, LFE\nSampling rate                            : 48.0 KHz\nBit depth                                : 16 bits\nCompression mode                         : Lossy\nStream size                              : 290 MiB (19%)\nAlignment                                : Split accross interleaves\nInterleave, duration                     : 42 ms (1.00 video frame)\nInterleave, preload duration             : 500 ms\n\n\n[/spoiler]\n\n[/color][/b][/center]","torrent":{"xt":"urn:btih:0e8fad2a861e56aa153800ed5cb34d0b7089a8f6","amp;dn":"The+Man+with+the+Iron+Fists+2+-+L+Uomo+Con+I+Pugni+Di+Ferro+2+%282","amp;tr":["udp%3A%2F%2Ftracker.openbittorrent.com%3A80","udp%3A%2F%2Fopen.demonii.com%3A1337","udp%3A%2F%2Ftracker.coppersurfer.tk%3A6969","udp%3A%2F%2Fexodus.desync.com%3A6969"],"infoHash":"0e8fad2a861e56aa153800ed5cb34d0b7089a8f6","infoHashBuffer":{"type":"Buffer","data":[14,143,173,42,134,30,86,170,21,56,0,237,92,179,77,11,112,137,168,246]},"announce":[],"urlList":[]}}